Coordinates
version=1
nRows=9
nColumns=36
inDegrees=yes

Units are S.I. units (second, meters, Newtons, ...)
If the header above contains a line with 'inDegrees', this indicates whether rotational values are in degrees (yes) or radians (no).

endheader
time	pelvis_tilt	pelvis_list	pelvis_rotation	pelvis_tx	pelvis_ty	pelvis_tz	hip_flexion_r	hip_adduction_r	hip_rotation_r	knee_angle_r	knee_angle_r_beta	ankle_angle_r	subtalar_angle_r	mtp_angle_r	hip_flexion_l	hip_adduction_l	hip_rotation_l	knee_angle_l	knee_angle_l_beta	ankle_angle_l	subtalar_angle_l	mtp_angle_l	lumbar_extension	lumbar_bending	lumbar_rotation	arm_flex_r	arm_add_r	arm_rot_r	elbow_flex_r	pro_sup_r	arm_flex_l	arm_add_l	arm_rot_l	elbow_flex_l	pro_sup_l
      0.00000000	      9.00172433	     -0.75023234	      3.12278680	      0.47870136	      1.27096291	     -0.07041495	    -13.33679386	     -0.42858534	     -0.47121478	      1.91546488	      0.03343117	     11.95318786	     -2.29992265	     -7.25360670	    -15.66519058	     -2.47668904	     -0.03086517	      0.74128563	      0.01293787	     14.03206822	     -2.59096968	     -7.25360670	    -13.71205751	      2.10282430	     -0.18201487	      8.21280946	    -11.43604828	      7.74396936	     14.49827006	     93.62960047	      1.86194051	     -9.53441521	     -0.15726340	     17.33631268	     94.50518477
      0.01666670	      8.29627824	     -0.44499320	      1.98949482	      0.46956841	      1.26853841	     -0.06589645	    -12.21985635	     -0.97607345	     -0.53853378	      1.79534407	      0.03133467	     13.05103298	     -1.72336048	     -7.26572942	    -14.98837259	     -1.89276100	     -1.20532200	      0.64563057	      0.01126838	     13.55556605	     -2.44155761	     -7.26572942	    -13.30617972	      1.65929239	      0.42242861	      9.92937561	    -10.94581970	      7.82652022	     11.65472894	     94.32467983	      2.03534868	     -9.49269292	      0.73715079	     16.55320749	     94.88193289
      0.03333330	      9.11760600	     -0.37291749	      1.75382166	      0.46679148	      1.27015351	     -0.06600883	    -12.41711859	     -1.06493035	     -0.65074136	      2.71063006	      0.04730942	     13.74633791	     -1.56437873	     -7.37686217	    -15.66004306	     -1.73998888	     -2.09669252	      0.81141559	      0.01416187	     13.13514022	     -2.97701517	     -7.37686217	    -14.91118325	      1.64511027	      0.47961929	     11.07905148	    -10.69408659	      8.68346229	     10.59926830	     93.79131542	      3.35637711	     -9.84816423	      5.34800381	     15.98156109	     92.94488039
      0.05000000	      9.54490552	     -0.31998383	      1.58547744	      0.46308025	      1.27007516	     -0.06626329	    -12.12126133	     -1.22292303	     -1.62839510	      3.72481120	      0.06501022	     14.41477211	     -1.09581730	     -7.45787992	    -15.79549917	     -1.56731693	     -2.99386626	      1.14766085	      0.02003046	     12.85421725	     -3.32776570	     -7.45787992	    -15.95509399	      1.71328613	      0.64649202	     12.06846942	    -10.30841227	      4.21082164	      9.90529518	     98.59676679	      4.31023691	     -9.57238119	      4.74593387	     15.61933857	     94.16052822
      0.06666670	     10.04126567	     -0.23162710	      1.37157742	      0.46109654	      1.27073532	     -0.06668732	    -12.08393062	     -1.35365105	     -1.80089490	      4.48645677	      0.07830344	     14.98237128	     -1.06392469	     -7.48462578	    -16.00689240	     -1.39194496	     -3.47020723	      1.58890880	      0.02773169	     12.61856674	     -3.74663230	     -7.48462578	    -16.97218647	      1.64671509	      0.77451645	     12.88946150	    -10.05799898	      2.23556114	      9.19418254	     98.99476845	      4.82305459	     -9.55395713	      5.08249932	     15.98373771	     94.02846197
      0.08333330	     10.17334334	     -0.15060500	      1.37422936	      0.46688000	      1.27118529	     -0.07059100	    -12.10443604	     -1.49674326	     -1.90776964	      4.77358516	      0.08331478	     15.06993419	     -1.16660278	     -7.48465694	    -16.08955353	     -1.27917280	     -3.67817099	      1.69050917	      0.02950495	     12.58310627	     -3.86655942	     -7.48465694	    -17.14263852	      1.70143544	      0.75511932	     12.86495580	    -10.11479553	      2.21803829	      9.13145761	     98.98493713	      4.76234817	     -9.42048855	      5.11258223	     15.98424785	     94.03525613
      0.10000000	     10.33772670	     -0.03748861	      1.31679505	      0.46608222	      1.27143165	     -0.07057715	    -12.00750841	     -1.67561797	     -1.92052075	      5.40567992	      0.09434691	     15.58084306	     -1.23104555	     -7.49121704	    -16.21288633	     -1.15032488	     -3.81521722	      1.71109527	      0.02986425	     12.36223284	     -4.07314781	     -7.49121704	    -17.55300202	      1.55214783	      0.80716116	     13.10454140	    -10.05013384	      2.35078715	      8.45254437	     96.23224323	      4.86411041	     -9.78276102	      8.13414075	     16.31739483	     92.62522373
      0.11666670	     10.26075218	      0.07853429	      1.44061927	      0.46501044	      1.27129225	     -0.07044468	    -11.88473369	     -1.83065152	     -1.94659111	      5.63939965	      0.09842609	     15.62285461	     -1.50490287	     -7.49399816	    -16.13506122	     -1.07128638	     -3.75708439	      1.70324416	      0.02972722	     12.28159190	     -4.07174801	     -7.49399816	    -17.44374758	      1.48871357	      0.62337783	     13.10812222	     -9.96186132	      4.12498711	      8.07849971	     89.76585517	      4.98223833	     -9.73940931	      9.65508978	     15.87218457	     87.65473270
      0.13333330	     10.21429146	      0.16413875	      1.65983044	      0.46539533	      1.27400435	     -0.07082341	    -11.89115785	     -1.89924300	     -2.00657317	      5.73275833	      0.10005551	     15.62210539	     -1.74811632	     -7.49635414	    -16.15582587	     -1.06128755	     -3.75073923	      1.62764075	      0.02840769	     12.16121324	     -4.11281710	     -7.49635414	    -17.34477879	      1.41190782	      0.24027375	     13.26061949	     -9.59779340	     -1.48305444	      7.46215869	     97.33550861	      4.49764652	     -9.74516979	      7.41420959	     16.55029820	     93.63683129
